<?xml version="1.0" encoding="utf-8"?>
<!-- Generator: Adobe Illustrator 18.1.1, SVG Export Plug-In . SVG Version: 6.00 Build 0)  -->
<!DOCTYPE svg PUBLIC "-//W3C//DTD SVG 1.1//EN" "http://www.w3.org/Graphics/SVG/1.1/DTD/svg11.dtd">
<svg version="1.1" id="Layer_1" xmlns="http://www.w3.org/2000/svg" xmlns:xlink="http://www.w3.org/1999/xlink" x="0px" y="0px"
	 width="100px" height="100px" viewBox="-561 347 100 100" style="enable-background:new -561 347 100 100;" xml:space="preserve">
<style type="text/css">
	.st0{stroke:#000000;stroke-width:1.4789;stroke-miterlimit:10;}
</style>
<g>
	<path class="st0" d="M-479.7,389.9c1,3.9,1.6,8.1,1.6,12.4c0,0.5,0,1,0,1.5l5.1,2l4.2-3.5l3.2,3.8l-6.3,5.2l-6.6-2.6
		c-0.8,5.8-2.5,11.2-5.1,15.9l0.9-1.2l4.9,2.8l4.7-2.8l2.6,4.2l-7,4.2l-7.7-4.5c-6,9.4-15.4,15.4-25.9,15.4
		c-10.5,0-19.8-6-25.9-15.3l-7.6,4.4l-7-4.2l2.6-4.2l4.7,2.8l4.9-2.8l0.4,0.5c-2.3-4.5-3.9-9.6-4.7-15.1l-6.4,2.6l-6.3-5.2l3.2-3.8
		l4.2,3.5l4.9-1.9c0-0.5,0-1.1,0-1.6c0-4.3,0.6-8.5,1.6-12.4l-8.2-0.3l-3.6-7.3l4.5-2.2l2.4,4.9l5.7,0.3l0.1,1.6
		c3.4-10.1,10.1-18.1,18.4-22.2c0.2-3.1,2.7-5.6,5.9-5.6h13.8c3.3,0,5.9,2.6,5.9,5.9c0,0.1,0,0.3,0,0.4c7.8,4.3,14,12.2,17.2,22
		l0.1-2.2l5.7-0.3l2.4-4.9l4.5,2.2l-3.6,7.3L-479.7,389.9z"/>
	<polygon class="st0" points="-494.4,354 -495.1,355.8 -496.1,356.2 -498.2,356.8 -499.9,357.8 -502.4,359.2 -502.4,357.8 
		-499.6,355.9 -497.6,355.3 -495.8,354 -494.8,352 -492.8,351.3 -493.3,353.2 	"/>
	<polygon class="st0" points="-522.7,356.8 -524.8,356.2 -525.8,355.8 -526.4,354 -527.5,353.2 -528.1,351.3 -526.1,352 -525,354 
		-523.2,355.3 -521.2,355.9 -518.4,357.8 -518.4,359.2 -520.9,357.8 	"/>
</g>
</svg>
