<svg xmlns="http://www.w3.org/2000/svg" width="100" height="100" viewBox="-561 347 100 100" enable-background="new -561 347 100 100"><style type="text/css">.st0{stroke:#000000;stroke-width:1.5177;stroke-miterlimit:10;}</style><path class="st0" d="M-478.6 389.8c1.1 4 1.6 8.3 1.6 12.7v1.5l5.2 2 4.3-3.6 3.3 3.9-6.5 5.3-6.7-2.7c-.8 6-2.6 11.5-5.2 16.3l.9-1.3 5.1 2.9 4.8-2.9 2.7 4.3-7.2 4.4-7.9-4.6c-6.2 9.6-15.8 15.8-26.6 15.8s-20.3-6.2-26.5-15.7l-7.8 4.6-7.2-4.4 2.7-4.3 4.8 2.9 5.1-2.9.4.5c-2.4-4.6-4-9.8-4.8-15.5l-6.5 2.6-6.5-5.3 3.3-3.9 4.3 3.6 5-1.9v-1.6c0-4.4.6-8.7 1.6-12.7l-8.4-.3-3.7-7.5 4.6-2.2 2.5 5 5.8.3.1 1.7c3.5-10.4 10.3-18.6 18.9-22.8.2-3.2 2.8-5.7 6.1-5.7h14.2c3.4 0 6.1 2.7 6.1 6v.4c8 4.4 14.4 12.5 17.6 22.6l.1-2.3 5.8-.3 2.5-5 4.6 2.2-3.7 7.5-8.8.4zM-493.7 352.9l-.7 1.8-1 .4-2.1.6-1.8 1.1-2.6 1.4v-1.4l2.9-2 2.1-.6 1.8-1.3 1.1-2.1 2-.7-.6 2zM-522.7 355.7l-2.1-.6-1.1-.4-.6-1.8-1.2-.8-.5-2 2 .7 1.1 2.1 1.8 1.3 2.1.6 2.9 2v1.4l-2.6-1.4z"/></svg>