<?xml version="1.0" encoding="utf-8"?>
<!-- Generator: Adobe Illustrator 18.1.1, SVG Export Plug-In . SVG Version: 6.00 Build 0)  -->
<!DOCTYPE svg PUBLIC "-//W3C//DTD SVG 1.1//EN" "http://www.w3.org/Graphics/SVG/1.1/DTD/svg11.dtd">
<svg version="1.1" id="Layer_1" xmlns="http://www.w3.org/2000/svg" xmlns:xlink="http://www.w3.org/1999/xlink" x="0px" y="0px"
	 width="100px" height="100px" viewBox="-561 347 100 100" style="enable-background:new -561 347 100 100;" xml:space="preserve">
<style type="text/css">
	.st0{stroke:#000000;stroke-width:1.5177;stroke-miterlimit:10;}
</style>
<g>
	<path class="st0" d="M-478.6,389.8c1.1,4,1.6,8.3,1.6,12.7c0,0.5,0,1,0,1.5l5.2,2l4.3-3.6l3.3,3.9l-6.5,5.3l-6.7-2.7
		c-0.8,6-2.6,11.5-5.2,16.3l0.9-1.3l5.1,2.9l4.8-2.9l2.7,4.3l-7.2,4.4l-7.9-4.6c-6.2,9.6-15.8,15.8-26.6,15.8
		c-10.8,0-20.3-6.2-26.5-15.7l-7.8,4.6l-7.2-4.4l2.7-4.3l4.8,2.9l5.1-2.9l0.4,0.5c-2.4-4.6-4-9.8-4.8-15.5l-6.5,2.6l-6.5-5.3
		l3.3-3.9l4.3,3.6l5-1.9c0-0.5,0-1.1,0-1.6c0-4.4,0.6-8.7,1.6-12.7l-8.4-0.3l-3.7-7.5l4.6-2.2l2.5,5l5.8,0.3l0.1,1.7
		c3.5-10.4,10.3-18.6,18.9-22.8c0.2-3.2,2.8-5.7,6.1-5.7h14.2c3.4,0,6.1,2.7,6.1,6c0,0.1,0,0.3,0,0.4c8,4.4,14.4,12.5,17.6,22.6
		l0.1-2.3l5.8-0.3l2.5-5l4.6,2.2l-3.7,7.5L-478.6,389.8z"/>
	<polygon class="st0" points="-493.7,352.9 -494.4,354.7 -495.4,355.1 -497.5,355.7 -499.3,356.8 -501.9,358.2 -501.9,356.8 
		-499,354.8 -496.9,354.2 -495.1,352.9 -494,350.8 -492,350.1 -492.6,352.1 	"/>
	<polygon class="st0" points="-522.7,355.7 -524.8,355.1 -525.9,354.7 -526.5,352.9 -527.7,352.1 -528.2,350.1 -526.2,350.8 
		-525.1,352.9 -523.3,354.2 -521.2,354.8 -518.3,356.8 -518.3,358.2 -520.9,356.8 	"/>
</g>
</svg>
