<svg xmlns="http://www.w3.org/2000/svg" width="100" height="100" viewBox="-561 347 100 100" enable-background="new -561 347 100 100"><style type="text/css">.st0{stroke:#000000;stroke-width:1.4789;stroke-miterlimit:10;}</style><path class="st0" d="M-479.7 389.9c1 3.9 1.6 8.1 1.6 12.4v1.5l5.1 2 4.2-3.5 3.2 3.8-6.3 5.2-6.6-2.6c-.8 5.8-2.5 11.2-5.1 15.9l.9-1.2 4.9 2.8 4.7-2.8 2.6 4.2-7 4.2-7.7-4.5c-6 9.4-15.4 15.4-25.9 15.4-10.5 0-19.8-6-25.9-15.3l-7.6 4.4-7-4.2 2.6-4.2 4.7 2.8 4.9-2.8.4.5c-2.3-4.5-3.9-9.6-4.7-15.1l-6.4 2.6-6.3-5.2 3.2-3.8 4.2 3.5 4.9-1.9v-1.6c0-4.3.6-8.5 1.6-12.4l-8.2-.3-3.6-7.3 4.5-2.2 2.4 4.9 5.7.3.1 1.6c3.4-10.1 10.1-18.1 18.4-22.2.2-3.1 2.7-5.6 5.9-5.6h13.8c3.3 0 5.9 2.6 5.9 5.9v.4c7.8 4.3 14 12.2 17.2 22l.1-2.2 5.7-.3 2.4-4.9 4.5 2.2-3.6 7.3-8.4.3zM-494.4 354l-.7 1.8-1 .4-2.1.6-1.7 1-2.5 1.4v-1.4l2.8-1.9 2-.6 1.8-1.3 1-2 2-.7-.5 1.9zM-522.7 356.8l-2.1-.6-1-.4-.6-1.8-1.1-.8-.6-1.9 2 .7 1.1 2 1.8 1.3 2 .6 2.8 1.9v1.4l-2.5-1.4z"/></svg>